<?xml version="1.0" encoding="UTF-8"?>
<svg xmlns="http://www.w3.org/2000/svg" xmlns:xlink="http://www.w3.org/1999/xlink" width="15px" height="17px" viewBox="0 0 15 17" version="1.1">
<g id="surface1">
<path style=" stroke:none;fill-rule:nonzero;fill:#526278;fill-opacity:1;" d="M 14.683594 9.25 L 9.328125 14.5625 C 9.121094 14.773438 8.847656 14.875 8.570312 14.875 C 8.296875 14.875 8.023438 14.769531 7.8125 14.5625 C 7.394531 14.148438 7.394531 13.476562 7.8125 13.0625 L 11.34375 9.5625 L 1.070312 9.5625 C 0.480469 9.5625 0 9.085938 0 8.5 C 0 7.914062 0.480469 7.4375 1.070312 7.4375 L 11.34375 7.4375 L 7.816406 3.9375 C 7.394531 3.523438 7.394531 2.851562 7.816406 2.433594 C 8.234375 2.019531 8.910156 2.019531 9.328125 2.433594 L 14.6875 7.746094 C 15.105469 8.164062 15.105469 8.835938 14.683594 9.25 Z M 14.683594 9.25 "/>
</g>
</svg>
