<svg id="Группа_1" data-name="Группа 1" xmlns="http://www.w3.org/2000/svg" width="52" height="52" viewBox="0 0 52 52">
  <defs>
    <style>
      .cls-1 {
        fill: none;
        stroke: #a3bbc8;
        stroke-width: 2px;
      }

      .cls-2 {
        fill: #a3bbc8;
        fill-rule: evenodd;
      }
    </style>
  </defs>
  <rect class="cls-1" x="1" y="1" width="50" height="50" rx="5" ry="5"/>
  <path class="cls-2" d="M1529.7,1330.53h-16.94l0.1-2.86a0.3,0.3,0,0,0,.08-0.2,0.323,0.323,0,0,0-.08-0.21l-0.18-.17a0.267,0.267,0,0,0-.4,0l-4.2,4.21a0.3,0.3,0,0,0-.08.2,0.323,0.323,0,0,0,.08.21l4.2,4.21a0.29,0.29,0,0,0,.4,0l0.18-.17a0.323,0.323,0,0,0,.08-0.21,0.3,0.3,0,0,0-.08-0.2l-0.12-2.86h16.97a0.3,0.3,0,0,0,.29-0.3v-1.37A0.291,0.291,0,0,0,1529.7,1330.53Z" transform="translate(-1494 -1305)"/>
</svg>
