<?xml version="1.0" encoding="UTF-8"?>
<svg xmlns="http://www.w3.org/2000/svg" xmlns:xlink="http://www.w3.org/1999/xlink" width="28px" height="28px" viewBox="0 0 28 28" version="1.1">
<g id="surface1">
<path style=" stroke:none;fill-rule:nonzero;fill:rgb(0%,0%,0%);fill-opacity:1;" d="M 0.210938 3 C 0.574219 2.238281 1.34375 1.75 2.1875 1.75 L 25.8125 1.75 C 26.660156 1.75 27.425781 2.238281 27.785156 3 C 28.152344 3.765625 28.039062 4.667969 27.457031 5.324219 L 17.5 17.550781 L 17.5 24.5 C 17.5 25.160156 17.128906 25.769531 16.53125 26.0625 C 15.941406 26.359375 15.230469 26.300781 14.699219 25.898438 L 11.199219 23.273438 C 10.757812 22.945312 10.5 22.425781 10.5 21.875 L 10.5 17.550781 L 0.496094 5.324219 C -0.0390625 4.667969 -0.152344 3.765625 0.210938 3 Z M 0.210938 3 "/>
</g>
</svg>
